<?xml version="1.0" encoding="utf-8"?>
<!-- Generator: Adobe Illustrator 26.1.0, SVG Export Plug-In . SVG Version: 6.00 Build 0)  -->
<svg version="1.1" xmlns="http://www.w3.org/2000/svg" xmlns:xlink="http://www.w3.org/1999/xlink" x="0px" y="0px" width="820px"
	 height="428.884px" viewBox="0 0 820 428.884" style="enable-background:new 0 0 820 428.884;" xml:space="preserve">
<style type="text/css">
	.st0{opacity:0.3;fill:url(#SVGID_1_);}
	.st1{fill:#FFFFFF;}
	.st2{fill:#333333;}
	.st3{fill:#1CD0BB;}
	.st4{fill:url(#SVGID_00000079452615880986172160000000999450552728803994_);}
	.st5{fill:url(#SVGID_00000176734672239511338500000003336660740029448627_);}
	.st6{fill:url(#SVGID_00000018229688422484323400000003950283668506173340_);}
	.st7{fill:url(#SVGID_00000015356118372926987870000002659105211055691168_);}
	.st8{fill:url(#SVGID_00000001633573784963676770000005659264530293267875_);}
	.st9{fill:url(#SVGID_00000013888534337680993690000002115512104882160534_);}
</style>
<g id="MAIN_GRAPHICS">
	<linearGradient id="SVGID_1_" gradientUnits="userSpaceOnUse" x1="259.5144" y1="221.4732" x2="518.8964" y2="221.4732">
		<stop  offset="0" style="stop-color:#00B4E5"/>
		<stop  offset="1" style="stop-color:#1CD0BB"/>
	</linearGradient>
	<circle class="st0" cx="389.205" cy="221.473" r="129.691"/>
	<path class="st1" d="M580.551,187.99h-0.379c-2.356-5.133-18.249-9.103-37.518-9.103c-19.269,0-35.161,3.97-37.518,9.103h-0.212
		v0.596c-0.06,0.24-0.101,0.481-0.101,0.725s0.041,0.485,0.101,0.724v18.319h-0.101c0,0.244,0.041,0.485,0.101,0.725v18.319h-0.101
		c0,0.244,0.041,0.485,0.101,0.725v18.319h-0.101c0,5.756,16.937,10.423,37.83,10.423c20.396,0,37.014-4.448,37.793-10.014h0.104
		V187.99z"/>
	<path class="st1" d="M428.58,47.657h-0.379c-2.356-5.133-18.249-9.103-37.518-9.103c-19.269,0-35.161,3.97-37.518,9.103h-0.212
		v0.596c-0.06,0.24-0.101,0.481-0.101,0.725s0.041,0.485,0.101,0.724v18.319h-0.101c0,0.244,0.041,0.485,0.101,0.725v18.319h-0.101
		c0,0.244,0.041,0.485,0.101,0.725v18.319h-0.101c0,5.756,16.937,10.423,37.83,10.423c20.396,0,37.014-4.448,37.793-10.014h0.104
		V47.657z"/>
	<path class="st1" d="M428.58,326.659h-0.379c-2.356-5.133-18.249-9.103-37.518-9.103c-19.269,0-35.161,3.97-37.518,9.103h-0.212
		v0.596c-0.06,0.24-0.101,0.481-0.101,0.725s0.041,0.485,0.101,0.724v18.319h-0.101c0,0.244,0.041,0.485,0.101,0.725v18.319h-0.101
		c0,0.244,0.041,0.485,0.101,0.725v18.319h-0.101c0,5.756,16.937,10.423,37.83,10.423c20.396,0,37.014-4.448,37.793-10.014h0.104
		V326.659z"/>
	<path class="st1" d="M277.273,187.99h-0.379c-2.356-5.133-18.249-9.103-37.518-9.103c-19.269,0-35.161,3.97-37.518,9.103h-0.212
		v0.596c-0.06,0.24-0.101,0.481-0.101,0.725s0.041,0.485,0.101,0.724v18.319h-0.101c0,0.244,0.041,0.485,0.101,0.725v18.319h-0.101
		c0,0.244,0.041,0.485,0.101,0.725v18.319h-0.101c0,5.756,16.937,10.423,37.83,10.423c20.396,0,37.014-4.448,37.793-10.014h0.104
		V187.99z"/>
	<rect x="276.26" y="219.028" class="st2" width="44.98" height="3.666"/>
	<rect x="459.439" y="219.028" class="st2" width="44.98" height="3.666"/>
	<rect x="389.066" y="287.959" class="st2" width="3.666" height="27.68"/>
	<rect x="389.066" y="118.437" class="st2" width="3.666" height="27.68"/>
	
		<rect x="446.544" y="132.387" transform="matrix(0.7071 -0.7071 0.7071 0.7071 46.1827 379.9349)" class="st2" width="70.34" height="3.665"/>
	
		<rect x="261.634" y="294.857" transform="matrix(0.7071 -0.7071 0.7071 0.7071 -122.8595 296.7703)" class="st2" width="70.34" height="3.665"/>
	
		<rect x="482.049" y="261.52" transform="matrix(0.7071 -0.7071 0.7071 0.7071 -68.0664 429.0515)" class="st2" width="3.665" height="70.34"/>
	
		<rect x="298.864" y="98.618" transform="matrix(0.7071 -0.7071 0.7071 0.7071 -6.5302 251.8099)" class="st2" width="3.665" height="70.339"/>
	<g>
		<path class="st3" d="M240.1,339.338c-19.619,0-39.48-4.147-39.48-12.072c0-7.926,19.861-12.073,39.48-12.073
			s39.48,4.147,39.48,12.073C279.58,335.191,259.719,339.338,240.1,339.338z M240.1,318.493c-22.416,0-36.18,5.109-36.18,8.773
			c0,3.663,13.764,8.772,36.18,8.772c22.417,0,36.181-5.109,36.181-8.772C276.28,323.602,262.516,318.493,240.1,318.493z"/>
		<path class="st3" d="M240.1,358.382c-19.619,0-39.48-4.147-39.48-12.073h3.3c0,3.664,13.764,8.773,36.18,8.773
			c22.417,0,36.181-5.109,36.181-8.773h3.3C279.58,354.235,259.719,358.382,240.1,358.382z"/>
		<path class="st3" d="M240.1,377.426c-19.619,0-39.48-4.147-39.48-12.073h3.3c0,3.664,13.764,8.773,36.18,8.773
			c22.417,0,36.181-5.109,36.181-8.773h3.3C279.58,373.279,259.719,377.426,240.1,377.426z"/>
		<path class="st3" d="M240.1,396.47c-19.619,0-39.48-4.147-39.48-12.073h3.3c0,3.664,13.764,8.773,36.18,8.773
			c22.417,0,36.181-5.109,36.181-8.773h3.3C279.58,392.323,259.719,396.47,240.1,396.47z"/>
		<rect x="200.652" y="327.458" class="st3" width="3.3" height="57.968"/>
		<rect x="276.216" y="327.458" class="st3" width="3.3" height="57.968"/>
	</g>
	<g>
		<path class="st3" d="M390.899,339.338c-19.619,0-39.48-4.147-39.48-12.072c0-7.926,19.861-12.073,39.48-12.073
			s39.479,4.147,39.479,12.073C430.379,335.191,410.519,339.338,390.899,339.338z M390.899,318.493
			c-22.416,0-36.18,5.109-36.18,8.773c0,3.663,13.764,8.772,36.18,8.772s36.181-5.109,36.181-8.772
			C427.08,323.602,413.315,318.493,390.899,318.493z"/>
		<path class="st3" d="M390.899,358.382c-19.619,0-39.48-4.147-39.48-12.073h3.3c0,3.664,13.764,8.773,36.18,8.773
			s36.181-5.109,36.181-8.773h3.299C430.379,354.235,410.519,358.382,390.899,358.382z"/>
		<path class="st3" d="M390.899,377.426c-19.619,0-39.48-4.147-39.48-12.073h3.3c0,3.664,13.764,8.773,36.18,8.773
			s36.181-5.109,36.181-8.773h3.299C430.379,373.279,410.519,377.426,390.899,377.426z"/>
		<path class="st3" d="M390.899,396.47c-19.619,0-39.48-4.147-39.48-12.073h3.3c0,3.664,13.764,8.773,36.18,8.773
			s36.181-5.109,36.181-8.773h3.299C430.379,392.323,410.519,396.47,390.899,396.47z"/>
		<rect x="351.452" y="327.458" class="st3" width="3.3" height="57.968"/>
		<rect x="427.017" y="327.458" class="st3" width="3.299" height="57.968"/>
	</g>
	<g>
		<path class="st3" d="M542.321,339.338c-19.619,0-39.479-4.147-39.479-12.072c0-7.926,19.86-12.073,39.479-12.073
			s39.48,4.147,39.48,12.073C581.802,335.191,561.94,339.338,542.321,339.338z M542.321,318.493
			c-22.416,0-36.181,5.109-36.181,8.773c0,3.663,13.765,8.772,36.181,8.772c22.417,0,36.182-5.109,36.182-8.772
			C578.503,323.602,564.738,318.493,542.321,318.493z"/>
		<path class="st3" d="M542.321,358.382c-19.619,0-39.479-4.147-39.479-12.073h3.299c0,3.664,13.765,8.773,36.181,8.773
			c22.417,0,36.182-5.109,36.182-8.773h3.299C581.802,354.235,561.94,358.382,542.321,358.382z"/>
		<path class="st3" d="M542.321,377.426c-19.619,0-39.479-4.147-39.479-12.073h3.299c0,3.664,13.765,8.773,36.181,8.773
			c22.417,0,36.182-5.109,36.182-8.773h3.299C581.802,373.279,561.94,377.426,542.321,377.426z"/>
		<path class="st3" d="M542.321,396.47c-19.619,0-39.479-4.147-39.479-12.073h3.299c0,3.664,13.765,8.773,36.181,8.773
			c22.417,0,36.182-5.109,36.182-8.773h3.299C581.802,392.323,561.94,396.47,542.321,396.47z"/>
		<rect x="502.874" y="327.458" class="st3" width="3.299" height="57.968"/>
		<rect x="578.438" y="327.458" class="st3" width="3.299" height="57.968"/>
	</g>
	<g>
		<path class="st3" d="M240.1,61.372c-19.619,0-39.48-4.147-39.48-12.072c0-7.926,19.861-12.073,39.48-12.073
			s39.48,4.147,39.48,12.073C279.58,57.225,259.719,61.372,240.1,61.372z M240.1,40.526c-22.416,0-36.18,5.109-36.18,8.773
			c0,3.663,13.764,8.772,36.18,8.772c22.417,0,36.181-5.109,36.181-8.772C276.28,45.636,262.516,40.526,240.1,40.526z"/>
		<path class="st3" d="M240.1,80.416c-19.619,0-39.48-4.147-39.48-12.073h3.3c0,3.664,13.764,8.773,36.18,8.773
			c22.417,0,36.181-5.109,36.181-8.773h3.3C279.58,76.269,259.719,80.416,240.1,80.416z"/>
		<path class="st3" d="M240.1,99.459c-19.619,0-39.48-4.147-39.48-12.073h3.3c0,3.664,13.764,8.773,36.18,8.773
			c22.417,0,36.181-5.109,36.181-8.773h3.3C279.58,95.312,259.719,99.459,240.1,99.459z"/>
		<path class="st3" d="M240.1,118.503c-19.619,0-39.48-4.147-39.48-12.072h3.3c0,3.663,13.764,8.772,36.18,8.772
			c22.417,0,36.181-5.109,36.181-8.772h3.3C279.58,114.356,259.719,118.503,240.1,118.503z"/>
		<rect x="200.652" y="49.492" class="st3" width="3.3" height="57.968"/>
		<rect x="276.216" y="49.492" class="st3" width="3.3" height="57.968"/>
	</g>
	<g>
		<path class="st3" d="M390.899,61.372c-19.619,0-39.48-4.147-39.48-12.072c0-7.926,19.861-12.073,39.48-12.073
			s39.479,4.147,39.479,12.073C430.379,57.225,410.519,61.372,390.899,61.372z M390.899,40.526c-22.416,0-36.18,5.109-36.18,8.773
			c0,3.663,13.764,8.772,36.18,8.772s36.181-5.109,36.181-8.772C427.08,45.636,413.315,40.526,390.899,40.526z"/>
		<path class="st3" d="M390.899,80.416c-19.619,0-39.48-4.147-39.48-12.073h3.3c0,3.664,13.764,8.773,36.18,8.773
			s36.181-5.109,36.181-8.773h3.299C430.379,76.269,410.519,80.416,390.899,80.416z"/>
		<path class="st3" d="M390.899,99.459c-19.619,0-39.48-4.147-39.48-12.073h3.3c0,3.664,13.764,8.773,36.18,8.773
			s36.181-5.109,36.181-8.773h3.299C430.379,95.312,410.519,99.459,390.899,99.459z"/>
		<path class="st3" d="M390.899,118.503c-19.619,0-39.48-4.147-39.48-12.072h3.3c0,3.663,13.764,8.772,36.18,8.772
			s36.181-5.109,36.181-8.772h3.299C430.379,114.356,410.519,118.503,390.899,118.503z"/>
		<rect x="351.452" y="49.492" class="st3" width="3.3" height="57.968"/>
		<rect x="427.017" y="49.492" class="st3" width="3.299" height="57.968"/>
	</g>
	<g>
		<path class="st3" d="M542.321,61.372c-19.619,0-39.479-4.147-39.479-12.072c0-7.926,19.86-12.073,39.479-12.073
			s39.48,4.147,39.48,12.073C581.802,57.225,561.94,61.372,542.321,61.372z M542.321,40.526c-22.416,0-36.181,5.109-36.181,8.773
			c0,3.663,13.765,8.772,36.181,8.772c22.417,0,36.182-5.109,36.182-8.772C578.503,45.636,564.738,40.526,542.321,40.526z"/>
		<path class="st3" d="M542.321,80.416c-19.619,0-39.479-4.147-39.479-12.073h3.299c0,3.664,13.765,8.773,36.181,8.773
			c22.417,0,36.182-5.109,36.182-8.773h3.299C581.802,76.269,561.94,80.416,542.321,80.416z"/>
		<path class="st3" d="M542.321,99.459c-19.619,0-39.479-4.147-39.479-12.073h3.299c0,3.664,13.765,8.773,36.181,8.773
			c22.417,0,36.182-5.109,36.182-8.773h3.299C581.802,95.312,561.94,99.459,542.321,99.459z"/>
		<path class="st3" d="M542.321,118.503c-19.619,0-39.479-4.147-39.479-12.072h3.299c0,3.663,13.765,8.772,36.181,8.772
			c22.417,0,36.182-5.109,36.182-8.772h3.299C581.802,114.356,561.94,118.503,542.321,118.503z"/>
		<rect x="502.874" y="49.492" class="st3" width="3.299" height="57.968"/>
		<rect x="578.438" y="49.492" class="st3" width="3.299" height="57.968"/>
	</g>
	<g>
		<path class="st3" d="M240.1,201.05c-19.619,0-39.48-4.147-39.48-12.073c0-7.925,19.861-12.072,39.48-12.072
			s39.48,4.147,39.48,12.072C279.58,196.903,259.719,201.05,240.1,201.05z M240.1,180.205c-22.416,0-36.18,5.109-36.18,8.772
			c0,3.664,13.764,8.773,36.18,8.773c22.417,0,36.181-5.109,36.181-8.773C276.28,185.314,262.516,180.205,240.1,180.205z"/>
		<path class="st3" d="M240.1,220.094c-19.619,0-39.48-4.147-39.48-12.073h3.3c0,3.664,13.764,8.773,36.18,8.773
			c22.417,0,36.181-5.109,36.181-8.773h3.3C279.58,215.947,259.719,220.094,240.1,220.094z"/>
		<path class="st3" d="M240.1,239.137c-19.619,0-39.48-4.147-39.48-12.072h3.3c0,3.663,13.764,8.772,36.18,8.772
			c22.417,0,36.181-5.109,36.181-8.772h3.3C279.58,234.99,259.719,239.137,240.1,239.137z"/>
		<path class="st3" d="M240.1,258.181c-19.619,0-39.48-4.147-39.48-12.072h3.3c0,3.663,13.764,8.772,36.18,8.772
			c22.417,0,36.181-5.109,36.181-8.772h3.3C279.58,254.034,259.719,258.181,240.1,258.181z"/>
		<rect x="200.652" y="189.17" class="st3" width="3.3" height="57.968"/>
		<rect x="276.216" y="189.17" class="st3" width="3.3" height="57.968"/>
	</g>
	<g>
		<path class="st3" d="M542.321,201.05c-19.619,0-39.479-4.147-39.479-12.073c0-7.925,19.86-12.072,39.479-12.072
			s39.48,4.147,39.48,12.072C581.802,196.903,561.94,201.05,542.321,201.05z M542.321,180.205c-22.416,0-36.181,5.109-36.181,8.772
			c0,3.664,13.765,8.773,36.181,8.773c22.417,0,36.182-5.109,36.182-8.773C578.503,185.314,564.738,180.205,542.321,180.205z"/>
		<path class="st3" d="M542.321,220.094c-19.619,0-39.479-4.147-39.479-12.073h3.299c0,3.664,13.765,8.773,36.181,8.773
			c22.417,0,36.182-5.109,36.182-8.773h3.299C581.802,215.947,561.94,220.094,542.321,220.094z"/>
		<path class="st3" d="M542.321,239.137c-19.619,0-39.479-4.147-39.479-12.072h3.299c0,3.663,13.765,8.772,36.181,8.772
			c22.417,0,36.182-5.109,36.182-8.772h3.299C581.802,234.99,561.94,239.137,542.321,239.137z"/>
		<path class="st3" d="M542.321,258.181c-19.619,0-39.479-4.147-39.479-12.072h3.299c0,3.663,13.765,8.772,36.181,8.772
			c22.417,0,36.182-5.109,36.182-8.772h3.299C581.802,254.034,561.94,258.181,542.321,258.181z"/>
		<rect x="502.874" y="189.17" class="st3" width="3.299" height="57.968"/>
		<rect x="578.438" y="189.17" class="st3" width="3.299" height="57.968"/>
	</g>
	<rect x="324.36" y="168.602" class="st1" width="132.684" height="103.753"/>
	<g>
		<g>
			<ellipse class="st1" cx="391.005" cy="166.577" rx="66.834" ry="18.413"/>
			
				<linearGradient id="SVGID_00000089546744481377852100000017289132238441017520_" gradientUnits="userSpaceOnUse" x1="324.0251" y1="178.3872" x2="457.9852" y2="154.7665">
				<stop  offset="0" style="stop-color:#00B4E5"/>
				<stop  offset="1" style="stop-color:#1CD0BB"/>
			</linearGradient>
			<path style="fill:url(#SVGID_00000089546744481377852100000017289132238441017520_);" d="M391.005,187.104
				c-33.424,0-68.948-7.195-68.948-20.528s35.524-20.527,68.948-20.527s68.948,7.194,68.948,20.527S424.43,187.104,391.005,187.104z
				 M391.005,150.278c-38.141,0-64.72,8.59-64.72,16.299c0,7.709,26.579,16.299,64.72,16.299c38.14,0,64.719-8.59,64.719-16.299
				C455.725,158.868,429.146,150.278,391.005,150.278z"/>
		</g>
		<g>
			<path class="st1" d="M457.839,200.221c0,10.169-29.923,18.413-66.834,18.413s-66.834-8.244-66.834-18.413"/>
			
				<linearGradient id="SVGID_00000003090590155625142050000015730236561873467020_" gradientUnits="userSpaceOnUse" x1="325.0364" y1="217.7668" x2="458.8854" y2="194.1657">
				<stop  offset="0" style="stop-color:#00B4E5"/>
				<stop  offset="1" style="stop-color:#1CD0BB"/>
			</linearGradient>
			<path style="fill:url(#SVGID_00000003090590155625142050000015730236561873467020_);" d="M391.005,220.749
				c-33.424,0-68.948-7.194-68.948-20.527h4.229c0,7.709,26.579,16.299,64.72,16.299c38.14,0,64.719-8.59,64.719-16.299h4.229
				C459.953,213.554,424.43,220.749,391.005,220.749z"/>
		</g>
		<g>
			<path class="st1" d="M457.839,233.865c0,10.169-29.923,18.413-66.834,18.413s-66.834-8.244-66.834-18.413"/>
			
				<linearGradient id="SVGID_00000039836435203471126160000000832743513061388735_" gradientUnits="userSpaceOnUse" x1="325.0364" y1="251.4111" x2="458.8854" y2="227.8099">
				<stop  offset="0" style="stop-color:#00B4E5"/>
				<stop  offset="1" style="stop-color:#1CD0BB"/>
			</linearGradient>
			<path style="fill:url(#SVGID_00000039836435203471126160000000832743513061388735_);" d="M391.005,254.393
				c-33.424,0-68.948-7.195-68.948-20.528h4.229c0,7.709,26.579,16.299,64.72,16.299c38.14,0,64.719-8.59,64.719-16.299h4.229
				C459.953,247.198,424.43,254.393,391.005,254.393z"/>
		</g>
		<g>
			<path class="st1" d="M457.839,267.51c0,10.169-29.923,18.413-66.834,18.413s-66.834-8.244-66.834-18.413"/>
			
				<linearGradient id="SVGID_00000156559901693074921940000012994150217717422242_" gradientUnits="userSpaceOnUse" x1="325.0364" y1="285.0554" x2="458.8854" y2="261.4543">
				<stop  offset="0" style="stop-color:#00B4E5"/>
				<stop  offset="1" style="stop-color:#1CD0BB"/>
			</linearGradient>
			<path style="fill:url(#SVGID_00000156559901693074921940000012994150217717422242_);" d="M391.005,288.037
				c-33.424,0-68.948-7.194-68.948-20.527h4.229c0,7.709,26.579,16.299,64.72,16.299c38.14,0,64.719-8.59,64.719-16.299h4.229
				C459.953,280.843,424.43,288.037,391.005,288.037z"/>
		</g>
		<g>
			
				<linearGradient id="SVGID_00000172401724114240665470000004170054778259515296_" gradientUnits="userSpaceOnUse" x1="313.4209" y1="220.0286" x2="335.0351" y2="216.2175">
				<stop  offset="0" style="stop-color:#00B4E5"/>
				<stop  offset="1" style="stop-color:#1CD0BB"/>
			</linearGradient>
			
				<rect x="322.114" y="166.918" style="fill:url(#SVGID_00000172401724114240665470000004170054778259515296_);" width="4.229" height="102.41"/>
		</g>
		<g>
			
				<linearGradient id="SVGID_00000130612988413172731430000015903655401333790120_" gradientUnits="userSpaceOnUse" x1="446.9185" y1="220.0286" x2="468.5327" y2="216.2175">
				<stop  offset="0" style="stop-color:#00B4E5"/>
				<stop  offset="1" style="stop-color:#1CD0BB"/>
			</linearGradient>
			
				<rect x="455.611" y="166.918" style="fill:url(#SVGID_00000130612988413172731430000015903655401333790120_);" width="4.229" height="102.41"/>
		</g>
	</g>
</g>
<g id="Layer_2_copy">
</g>
</svg>
